# xmcd
#
# Track frame offsets:
#	150
#	19916
#	43839
#	64825
#	81361
#	101880
#	117170
#	134459
#	145668
#	157983
#	165626
#	201299
#	231349
#	238336
#	246946
#	264084
#	268331
#	287372
#	301604
#	341747
#
# Disc length: 4750 seconds
#
# Revision: 1
# Processed by: cddbd v1.5.2PL0 Copyright (c) Steve Scherf et al.
# Submitted via: audiograbber 1.83.01
#
DISCID=26128c14
DTITLE=Gerd Bingemann  - Wide Rooms I
DYEAR=2008
DGENRE=Blues
TTITLE0=Living Waters
TTITLE1=Metanoia
TTITLE2=Der Einzug
TTITLE3=Brauttanz
TTITLE4=Balladium
TTITLE5=Herold
TTITLE6=Tanz auf dem Wasser
TTITLE7=You Said
TTITLE8=Joy Whistle
TTITLE9=Luägät vo Berg und Tal
TTITLE10=Segelflug
TTITLE11=Wide Rooms
TTITLE12=Wider
TTITLE13=For The Youngstas
TTITLE14=Heilung
TTITLE15=Petite Valse
TTITLE16=Take It
TTITLE17=Schmetterling
TTITLE18=Bächli
TTITLE19=Daten-CD
EXTD=
EXTT0=
EXTT1=
EXTT2=
EXTT3=
EXTT4=
EXTT5=
EXTT6=
EXTT7=
EXTT8=
EXTT9=
EXTT10=
EXTT11=
EXTT12=
EXTT13=
EXTT14=
EXTT15=
EXTT16=
EXTT17=
EXTT18=
EXTT19=
PLAYORDER=
